<svg xmlns="http://www.w3.org/2000/svg" xmlns:xlink="http://www.w3.org/1999/xlink" width="100" zoomAndPan="magnify" viewBox="0 0 375 374.999991" height="100" preserveAspectRatio="xMidYMid meet" version="1.0"><defs><g/><clipPath id="640620933b"><path d="M 122.988281 200.386719 L 192.25 200.386719 L 192.25 208.089844 L 122.988281 208.089844 Z M 122.988281 200.386719 " clip-rule="nonzero"/></clipPath><clipPath id="3f3fc035f9"><path d="M 201.265625 156.613281 L 270.523438 156.613281 L 270.523438 164.3125 L 201.265625 164.3125 Z M 201.265625 156.613281 " clip-rule="nonzero"/></clipPath></defs><rect x="-37.5" width="450" fill="#ffffff" y="-37.499999" height="449.999989" fill-opacity="1"/><g clip-path="url(#640620933b)"><path fill="#013220" d="M 122.988281 200.386719 L 192.246094 200.386719 L 192.246094 208.089844 L 122.988281 208.089844 Z M 122.988281 200.386719 " fill-opacity="1" fill-rule="nonzero"/></g><g clip-path="url(#3f3fc035f9)"><path fill="#013220" d="M 201.265625 156.613281 L 270.523438 156.613281 L 270.523438 164.3125 L 201.265625 164.3125 Z M 201.265625 156.613281 " fill-opacity="1" fill-rule="nonzero"/></g><g fill="#013220" fill-opacity="1"><g transform="translate(100.2013, 181.604855)"><g><path d="M 13.148438 -12.300781 C 17.578125 -12.835938 20.035156 -14.984375 20.035156 -18.292969 C 20.035156 -21.734375 17.128906 -23.972656 11.316406 -23.972656 L 1.117188 -23.972656 L 1.117188 -23.257812 L 4.292969 -23.257812 L 4.292969 -0.714844 L 1.117188 -0.714844 L 1.117188 0 L 11.761719 0 C 18.605469 0 21.734375 -2.640625 21.734375 -6.484375 C 21.734375 -10.195312 18.605469 -12.074219 13.148438 -12.300781 Z M 10.914062 -23.257812 C 14.402344 -23.257812 16.054688 -21.15625 16.054688 -17.933594 C 16.054688 -14.582031 14.222656 -12.523438 11.003906 -12.523438 L 8.183594 -12.523438 L 8.183594 -23.257812 Z M 8.183594 -0.714844 L 8.183594 -11.808594 L 11.40625 -11.808594 C 15.652344 -11.808594 17.667969 -10.0625 17.667969 -6.351562 C 17.667969 -3.042969 15.789062 -0.714844 11.851562 -0.714844 Z M 8.183594 -0.714844 "/></g></g></g><g fill="#013220" fill-opacity="1"><g transform="translate(131.99831, 181.604855)"><g><path d="M 24.597656 -23.972656 L 16.859375 -23.972656 L 16.859375 -23.390625 L 20.617188 -21.378906 L 20.617188 -8.410156 C 20.617188 -3.667969 17.890625 -0.625 13.328125 -0.625 C 9.4375 -0.625 7.515625 -3.445312 7.515625 -8.003906 L 7.515625 -23.257812 L 10.957031 -23.257812 L 10.957031 -23.972656 L 0.671875 -23.972656 L 0.671875 -23.257812 L 3.621094 -23.257812 L 3.621094 -8.140625 C 3.621094 -2.550781 6.753906 0.492188 12.566406 0.492188 C 18.203125 0.492188 21.511719 -2.773438 21.511719 -8.410156 L 21.511719 -21.378906 L 24.597656 -23.390625 Z M 24.597656 -23.972656 "/></g></g></g><g fill="#013220" fill-opacity="1"><g transform="translate(166.388984, 181.604855)"><g><path d="M 11.449219 -23.972656 L 1.117188 -23.972656 L 1.117188 -23.257812 L 4.292969 -23.257812 L 4.292969 -0.714844 L 1.117188 -0.714844 L 1.117188 0 L 11.761719 0 C 19.992188 0 24.554688 -5.054688 24.554688 -12.523438 C 24.554688 -19.5 20.351562 -23.972656 11.449219 -23.972656 Z M 8.183594 -0.714844 L 8.183594 -23.257812 L 11.40625 -23.257812 C 17.351562 -23.257812 20.304688 -19.277344 20.304688 -12.390625 C 20.304688 -5.277344 17.21875 -0.714844 11.628906 -0.714844 Z M 8.183594 -0.714844 "/></g></g></g><g fill="#013220" fill-opacity="1"><g transform="translate(211.80413, 208.449606)"><g><path d="M 1.027344 -28.714844 C 0.984375 -28.445312 0.9375 -28.132812 0.9375 -27.773438 L 9.707031 -27.773438 C 9.792969 -28.042969 9.792969 -28.488281 9.792969 -28.714844 C 8.632812 -28.800781 2.101562 -28.757812 1.027344 -28.714844 Z M 4.964844 -6.574219 L 4.964844 -26.878906 L 0.9375 -26.878906 C 0.894531 -26.609375 0.851562 -26.296875 0.851562 -25.941406 L 3.800781 -25.941406 L 3.800781 -6.574219 C 3.800781 -1.921875 3.308594 0.984375 0.582031 2.28125 C 0.671875 2.59375 0.9375 2.996094 1.117188 3.175781 C 3.800781 1.96875 4.964844 0.132812 4.964844 -6.574219 Z M 5.949219 -26.878906 L 5.949219 -6.976562 C 5.949219 -0.671875 5.1875 2.324219 1.609375 4.070312 C 1.699219 4.382812 1.96875 4.785156 2.148438 4.964844 C 5.589844 3.398438 7.109375 0.9375 7.109375 -6.976562 L 7.109375 -25.941406 L 9.617188 -25.941406 C 9.707031 -26.207031 9.707031 -26.65625 9.707031 -26.878906 Z M 5.949219 -26.878906 "/></g></g></g><g fill="#013220" fill-opacity="1"><g transform="translate(231.124727, 208.449606)"><g><path d="M 17.21875 -20.707031 C 17.53125 -20.664062 17.980469 -20.664062 18.292969 -20.707031 L 18.292969 -28.714844 L 1.074219 -28.714844 C 1.027344 -28.445312 0.984375 -28.132812 0.984375 -27.773438 L 17.21875 -27.773438 Z M 3.800781 -2.683594 L 1.207031 -2.683594 C 1.117188 -2.460938 1.117188 -1.921875 1.117188 -1.746094 L 4.964844 -1.746094 L 4.964844 -26.878906 L 0.984375 -26.878906 C 0.9375 -26.609375 0.894531 -26.296875 0.894531 -25.941406 L 3.800781 -25.941406 Z M 15.25 -20.707031 C 15.519531 -20.664062 16.011719 -20.664062 16.28125 -20.707031 L 16.28125 -26.878906 L 5.949219 -26.878906 L 5.949219 -14.714844 L 12.96875 -14.714844 L 12.96875 -18.917969 C 12.613281 -18.964844 12.300781 -18.964844 11.941406 -18.917969 C 11.898438 -17.890625 11.851562 -16.773438 11.898438 -15.652344 L 7.109375 -15.652344 L 7.109375 -25.941406 L 15.160156 -25.941406 C 15.160156 -24.242188 15.160156 -22.140625 15.25 -20.707031 Z M 13.910156 -9.839844 C 14.265625 -9.792969 14.714844 -9.792969 14.984375 -9.839844 L 14.984375 -18.917969 C 14.625 -18.964844 14.265625 -18.964844 13.910156 -18.917969 Z M 5.949219 -13.820312 L 5.949219 -1.746094 L 16.683594 -1.746094 L 16.683594 -8.003906 C 16.371094 -8.050781 15.964844 -8.050781 15.609375 -8.003906 L 15.609375 -2.683594 L 7.109375 -2.683594 L 7.109375 -12.878906 L 11.851562 -12.878906 C 11.851562 -11.851562 11.898438 -10.644531 11.941406 -9.839844 C 12.210938 -9.792969 12.703125 -9.792969 12.96875 -9.839844 L 12.96875 -13.820312 Z M 18.648438 -8.003906 C 18.425781 -8.050781 17.890625 -8.050781 17.621094 -8.003906 L 17.621094 -0.9375 L 1.074219 -0.9375 C 0.984375 -0.714844 0.984375 -0.179688 0.984375 0 L 18.738281 0 C 18.738281 -2.324219 18.738281 -5.8125 18.648438 -8.003906 Z M 18.648438 -8.003906 "/></g></g></g><g fill="#013220" fill-opacity="1"><g transform="translate(260.149205, 208.449606)"><g><path d="M 20.261719 -28.714844 L 0.894531 -28.714844 C 0.894531 -26.121094 0.851562 -22.183594 0.984375 -19.722656 C 1.253906 -19.679688 1.746094 -19.679688 2.011719 -19.722656 L 2.011719 -27.773438 L 19.1875 -27.773438 L 19.1875 -19.722656 C 19.457031 -19.679688 19.945312 -19.679688 20.214844 -19.722656 Z M 8.988281 -25.941406 L 8.988281 -2.683594 L 5.546875 -2.683594 C 5.457031 -2.460938 5.457031 -1.921875 5.457031 -1.746094 L 10.152344 -1.746094 L 10.152344 -26.878906 L 2.816406 -26.878906 L 2.816406 -19.722656 C 3.085938 -19.679688 3.667969 -19.679688 3.847656 -19.722656 L 3.890625 -25.941406 Z M 18.382812 -26.878906 L 11.136719 -26.878906 L 11.136719 -1.746094 L 15.964844 -1.746094 C 16.011719 -1.96875 16.054688 -2.371094 16.054688 -2.683594 L 12.300781 -2.683594 L 12.300781 -25.941406 L 17.265625 -25.941406 C 17.265625 -23.75 17.265625 -21.871094 17.398438 -19.722656 C 17.667969 -19.679688 18.113281 -19.679688 18.382812 -19.722656 Z M 5.320312 0 C 6.796875 0.0898438 14.492188 0.0429688 15.832031 0 C 15.878906 -0.222656 15.921875 -0.625 15.921875 -0.9375 L 5.410156 -0.9375 C 5.320312 -0.714844 5.320312 -0.179688 5.320312 0 Z M 5.320312 0 "/></g></g></g></svg>